<svg width="162" height="149" viewBox="0 0 162 149" fill="none" xmlns="http://www.w3.org/2000/svg">
<path d="M0 82.8019C0 84.6299 0.609335 86.1194 1.89571 87.338C3.18208 88.5567 4.80698 89.0983 6.77039 89.0983H18.2124C20.0404 89.0983 21.5975 88.489 22.8839 87.2703C24.1703 86.0517 24.8473 84.5622 24.8473 82.8019C24.8473 80.8385 24.238 79.2136 22.9516 77.9949C21.6653 76.7762 20.1081 76.0992 18.2801 76.0992H6.77039C4.80698 76.0992 3.18208 76.7085 1.89571 77.9949C0.609335 79.1459 0 80.7708 0 82.8019ZM11.9836 124.643C11.9836 131.21 14.3532 136.897 19.1602 141.704C23.9672 146.511 29.5866 148.881 36.1539 148.881H82.5988C89.166 148.881 94.7855 146.511 99.457 141.772C104.129 137.033 106.498 131.346 106.498 124.643C106.498 121.393 106.024 118.617 105.076 116.315C110.696 112.727 115.164 107.92 118.414 101.962C121.664 96.0041 123.357 89.5723 123.357 82.7342C123.357 77.2502 122.273 71.9693 120.107 66.9592C117.94 61.9491 115.029 57.616 111.441 54.0277C107.852 50.4394 103.519 47.5281 98.5092 45.3616C93.4991 43.1951 88.2859 42.1118 82.8019 42.1118C75.4221 42.1118 68.5841 43.9398 62.3553 47.5958C56.1265 51.2519 51.1842 56.1942 47.5958 62.3553C44.0075 68.5841 42.2472 75.3544 42.2472 82.7342V85.0361C35.4768 88.8952 31.0084 94.5147 28.8419 101.894C23.6964 103.519 19.6341 106.363 16.5875 110.493C13.5408 114.623 11.9836 119.362 11.9836 124.643ZM22.5454 28.7742C22.5454 30.6699 23.1547 32.2271 24.3057 33.3103L35.206 44.7523C38.3881 47.1896 41.5702 47.1896 44.7523 44.7523C46.0387 43.4659 46.648 41.9087 46.648 40.013C46.648 38.185 46.0387 36.6278 44.7523 35.2737L33.5811 24.1026C32.1594 22.8162 30.5345 22.1392 28.8419 22.1392C26.9462 22.1392 25.389 22.7485 24.238 24.0349C23.087 25.3213 22.5454 26.8785 22.5454 28.7742ZM25.389 124.643C25.389 121.799 26.2691 119.362 28.0971 117.331C29.9251 115.3 32.2271 114.149 35.0029 113.878L39.2006 113.336C40.0807 113.336 40.5546 112.795 40.5546 111.779L41.164 107.988C41.6379 104.061 43.2628 100.811 46.1064 98.2384C48.9499 95.5979 52.2674 94.3115 56.1265 94.3115C60.0534 94.3115 63.5063 95.5979 66.3498 98.2384C69.2611 100.879 70.9537 104.129 71.4276 107.988L71.9693 112.388C72.3755 113.404 72.9171 113.946 73.5941 113.946H82.5311C85.4423 113.946 87.9474 115.029 90.1139 117.128C92.2804 119.227 93.296 121.732 93.296 124.711C93.296 127.757 92.2127 130.33 90.1139 132.497C88.0151 134.663 85.4423 135.746 82.5311 135.746H36.1539C33.1072 135.746 30.5345 134.663 28.5033 132.497C26.4045 130.33 25.389 127.69 25.389 124.643ZM55.3141 81.3801C55.788 74.0004 58.6316 67.7716 63.9125 62.6938C69.1257 57.6837 75.4899 55.111 82.8019 55.111C90.317 55.111 96.7489 57.8191 102.03 63.1677C107.311 68.5163 109.951 75.0836 109.951 82.7342C109.951 87.4734 108.8 91.8742 106.498 95.9364C104.196 99.9987 101.082 103.248 97.1551 105.754C93.1606 102.436 88.5567 100.811 83.4112 100.811C81.4478 94.8532 77.9272 90.1816 72.9848 86.661C68.0424 83.1404 62.423 81.3801 56.1942 81.3801H55.3141ZM76.2346 22.1392C76.2346 23.9672 76.9116 25.5921 78.198 26.8785C79.4844 28.1648 81.0416 28.8419 82.8696 28.8419C84.7653 28.8419 86.3225 28.1648 87.6089 26.8785C88.8952 25.5921 89.5723 24.0349 89.5723 22.1392V6.29646C89.5723 4.53616 88.8952 3.04668 87.6089 1.82801C86.3225 0.609335 84.7653 0 82.8696 0C81.0416 0 79.4844 0.609335 78.198 1.82801C76.9116 3.04668 76.2346 4.53616 76.2346 6.29646V22.1392ZM119.023 125.252C119.023 127.08 119.633 128.637 120.851 129.991L131.955 140.96C134.798 143.803 137.981 143.803 141.501 140.96C142.72 139.809 143.261 138.319 143.261 136.356C143.261 134.528 142.652 133.038 141.501 131.82L130.059 120.513C128.841 119.362 127.283 118.82 125.455 118.82C123.56 118.82 122.07 119.43 120.851 120.648C119.633 121.867 119.023 123.424 119.023 125.252ZM119.023 39.8776C119.023 41.7733 119.633 43.3982 120.851 44.7523C122.07 45.971 123.627 46.5803 125.455 46.5803C127.283 46.5803 128.841 45.971 130.059 44.7523L141.501 33.3103C142.72 32.1594 143.261 30.6699 143.261 28.7742C143.261 26.8785 142.584 25.3213 141.298 24.1026C140.012 22.8839 138.454 22.2069 136.559 22.2069C134.798 22.2069 133.241 22.8839 131.955 24.1703L120.851 35.206C119.633 36.4247 119.023 37.9819 119.023 39.8776ZM136.491 82.8019C136.491 84.6299 137.1 86.1194 138.387 87.338C139.673 88.5567 141.298 89.0983 143.261 89.0983H154.703C156.531 89.0983 158.089 88.489 159.375 87.2703C160.661 86.0517 161.338 84.5622 161.338 82.8019C161.338 80.8385 160.729 79.2136 159.443 77.9949C158.156 76.7762 156.599 76.0992 154.771 76.0992H143.329C141.366 76.0992 139.741 76.7085 138.454 77.9949C137.168 79.1459 136.491 80.7708 136.491 82.8019Z" fill="white" fill-opacity="0.7"/>
</svg>
