<svg width="179" height="121" viewBox="0 0 179 121" fill="none" xmlns="http://www.w3.org/2000/svg">
<path d="M0 94.0268C0 92.3712 0.578123 90.9225 1.80663 89.8187C3.03515 88.7149 4.55272 88.1631 6.35935 88.1631H141.279C143.085 88.1631 144.531 88.7149 145.687 89.8187C146.843 90.9225 147.421 92.3022 147.421 94.0268C147.421 95.6135 146.843 96.9932 145.615 98.0279C144.386 99.1317 142.941 99.6146 141.279 99.6146H6.35935C4.55272 99.6146 3.03515 99.0627 1.80663 98.0279C0.578123 96.9242 0 95.6135 0 94.0268ZM18.9335 72.3655C18.9335 70.7098 19.5839 69.3301 20.8124 68.2263C21.8964 67.1916 23.3417 66.6397 25.0761 66.6397H159.996C161.658 66.6397 163.031 67.1916 164.187 68.2953C165.343 69.3991 165.849 70.7098 165.849 72.3655C165.849 74.0211 165.271 75.4008 164.187 76.5046C163.031 77.6773 161.658 78.2292 159.996 78.2292H25.0761C23.3417 78.2292 21.8964 77.6773 20.7402 76.5046C19.5116 75.3318 18.9335 73.9521 18.9335 72.3655ZM19.873 55.878C19.873 56.4989 20.2343 56.7748 20.957 56.7748H31.2909C31.7245 56.7748 32.2304 56.4299 32.7362 55.671C34.4706 52.0838 36.9999 49.1864 40.3963 46.9099C43.7928 44.6334 47.5506 43.3227 51.5975 43.0468L55.5721 42.5639C56.367 42.5639 56.8006 42.1499 56.8006 41.3221L57.3064 37.8729C58.1014 30.4225 61.3533 24.2138 67.2068 19.2469C73.0603 14.2799 79.9255 11.7965 87.8024 11.7965C95.6071 11.7965 102.4 14.2799 108.254 19.1779C114.035 24.0758 117.359 30.2845 118.154 37.6659L118.732 41.5981C118.732 42.3569 119.238 42.7708 120.177 42.7708H131.668C136.292 42.7708 140.556 43.9436 144.386 46.358C148.216 48.7725 151.035 51.8769 152.914 55.809C153.419 56.5678 153.925 56.9128 154.431 56.9128H164.765C165.632 56.9128 165.994 56.4299 165.777 55.3261C163.681 48.2896 159.417 42.4949 153.203 38.0108C146.915 33.5268 139.761 31.3193 131.74 31.3193H129.427C127.043 22.1442 121.984 14.6249 114.252 8.76111C106.519 2.89737 97.775 0 87.8747 0C77.7575 0 68.7966 3.03535 60.9197 9.10604C53.0428 15.1767 48.0565 22.9031 45.8162 32.2851C39.6737 33.6648 34.2538 36.4242 29.6288 40.6323C25.0038 44.8404 21.7519 49.8073 19.9452 55.671V55.3951C19.873 55.3951 19.873 55.6021 19.873 55.878ZM31.5077 115.136C31.5077 113.481 32.1581 112.17 33.3866 111.066C34.4706 110.031 35.9159 109.479 37.7225 109.479H172.714C174.449 109.479 175.894 110.031 177.05 111.066C178.279 112.17 178.857 113.481 178.857 115.067C178.857 116.723 178.279 118.103 177.05 119.275C175.822 120.448 174.376 121 172.714 121H37.7225C36.0604 121 34.6151 120.379 33.3866 119.206C32.1581 118.172 31.5077 116.723 31.5077 115.136Z" fill="white" fill-opacity="0.7"/>
</svg>
