<svg width="147" height="148" viewBox="0 0 147 148" fill="none" xmlns="http://www.w3.org/2000/svg">
<path d="M0 69.8684C0 61.3838 2.55282 53.8584 7.65846 47.2183C12.7641 40.5783 19.2171 36.3729 27.0174 34.4546C29.2156 24.4207 34.2504 16.1575 41.9797 9.66501C49.7091 3.17248 58.5731 0 68.5716 0C78.3574 0 87.0087 3.17248 94.6671 9.44367C102.326 15.7149 107.289 23.8305 109.559 33.7169H111.828C118.139 33.7169 124.025 35.34 129.414 38.5125C134.803 41.6849 139.129 46.1117 142.249 51.6451C145.369 57.1785 147 63.3021 147 69.8684C147 76.3609 145.511 82.337 142.533 87.8704C139.554 93.4038 135.441 97.8305 130.265 101.151C125.088 104.471 119.415 106.241 113.246 106.389C112.324 106.389 111.828 105.946 111.828 105.135V95.322C111.828 94.4367 112.324 93.994 113.246 93.994C119.274 93.6989 124.45 91.1904 128.705 86.4686C132.959 81.7468 135.087 76.2134 135.087 69.7946C135.087 63.3759 132.747 57.8425 128.137 53.1206C123.528 48.3988 118.068 46.0379 111.757 46.0379H100.34C99.4892 46.0379 99.0637 45.5952 99.0637 44.7837L98.4964 40.5045C97.7164 32.5364 94.3835 25.8225 88.6396 20.5105C82.8249 15.1246 76.1592 12.4686 68.4298 12.4686C60.7004 12.4686 53.8929 15.1246 48.22 20.5105C42.4761 25.8963 39.2851 32.5364 38.576 40.5045L38.0796 44.4148C38.0796 45.3001 37.5832 45.8165 36.6614 45.8165L32.903 46.0379C27.0174 46.7757 22.0535 49.4317 18.0116 53.9322C13.9696 58.4327 11.9841 63.7448 11.9841 69.8684C11.9841 76.2871 14.1114 81.8205 18.3661 86.5424C22.6208 91.2642 27.7974 93.7727 33.8249 94.0678C34.6049 94.0678 35.0304 94.5105 35.0304 95.3958V105.208C35.0304 106.02 34.6049 106.463 33.8249 106.463C24.3227 106.02 16.3097 102.257 9.71491 95.1745C3.12012 88.0917 0 79.681 0 69.8684ZM37.9378 119.226C37.9378 118.931 38.0087 118.415 38.2214 117.751L49.78 75.1805C50.2055 73.7787 50.9855 72.672 52.0492 71.9342C53.1129 71.1964 54.2475 70.8275 55.3111 70.8275C55.8075 70.8275 56.3748 70.9013 57.013 71.0489C58.7149 71.344 59.9913 72.3031 60.8423 73.7787C61.6932 75.2542 61.9059 76.8774 61.4095 78.7218L49.8509 120.997C49 124.169 47.0145 125.719 44.0362 125.719C43.7525 125.719 43.5398 125.645 43.2561 125.571C42.8307 125.424 42.6179 125.35 42.547 125.35C40.987 124.907 39.8524 124.096 39.0724 122.915C38.2923 121.661 37.9378 120.481 37.9378 119.226ZM56.5166 139.958L73.8191 75.2542C74.1027 73.8524 74.8119 72.7458 75.9465 72.008C77.081 71.2702 78.2156 70.9013 79.4211 70.9013C80.0593 70.9013 80.6975 70.9751 81.3357 71.1226C82.8958 71.5653 84.0304 72.5244 84.8104 74C85.5904 75.4756 85.7323 77.0249 85.3068 78.7218L68.0753 143.499C67.7916 144.754 67.1534 145.787 66.0188 146.672C64.8842 147.557 63.7496 148 62.4023 148C61.7641 148 61.1259 147.852 60.6295 147.631C59.2113 147.262 58.0058 146.303 56.9421 144.754C56.1621 143.426 56.0203 141.876 56.5166 139.958ZM85.8032 119.374C85.8032 119.079 85.8741 118.562 86.0868 117.677L97.6454 75.1067C98.0709 73.7049 98.78 72.5982 99.7728 71.8604C100.836 71.1226 101.9 70.7537 103.035 70.7537C103.602 70.7537 104.24 70.8275 104.878 70.9751C106.368 71.4177 107.431 72.1555 108.14 73.2622C108.849 74.3689 109.204 75.5494 109.204 76.7298C109.204 76.9511 109.133 77.32 109.062 77.7627C108.991 78.2054 108.92 78.5005 108.92 78.6481L97.3618 120.923C97.0782 122.325 96.4399 123.505 95.3763 124.317C94.3126 125.129 93.1071 125.571 91.7598 125.571L90.0579 125.202C88.6397 124.76 87.576 124.022 86.7959 122.841C86.1577 121.735 85.8032 120.554 85.8032 119.374Z" fill="white" fill-opacity="0.7"/>
</svg>
